<svg width="73" height="73" viewBox="0 0 73 73" fill="none" xmlns="http://www.w3.org/2000/svg">
<path d="M32.5308 27.1835V31.3718H29.4648V36.491H32.5308V51.7084H38.8332V36.491H43.0611C43.0611 36.491 43.4595 34.0363 43.6512 31.3505H38.8575V27.8526C38.8575 27.3264 39.5449 26.6238 40.2263 26.6238H43.6573V21.2917H38.9883C32.3757 21.2917 32.5308 26.417 32.5308 27.1835Z" fill="black"/>
<path d="M18.2507 12.1666C16.6373 12.1666 15.0899 12.8075 13.9491 13.9484C12.8082 15.0892 12.1673 16.6365 12.1673 18.2499V54.7499C12.1673 56.3633 12.8082 57.9106 13.9491 59.0515C15.0899 60.1923 16.6373 60.8333 18.2507 60.8333H54.7507C56.3641 60.8333 57.9114 60.1923 59.0522 59.0515C60.1931 57.9106 60.834 56.3633 60.834 54.7499V18.2499C60.834 16.6365 60.1931 15.0892 59.0522 13.9484C57.9114 12.8075 56.3641 12.1666 54.7507 12.1666H18.2507ZM18.2507 6.08325H54.7507C57.9775 6.08325 61.0721 7.36509 63.3538 9.64679C65.6355 11.9285 66.9173 15.0231 66.9173 18.2499V54.7499C66.9173 57.9767 65.6355 61.0714 63.3538 63.3531C61.0721 65.6347 57.9775 66.9166 54.7507 66.9166H18.2507C15.0239 66.9166 11.9292 65.6347 9.64752 63.3531C7.36583 61.0714 6.08398 57.9767 6.08398 54.7499V18.2499C6.08398 15.0231 7.36583 11.9285 9.64752 9.64679C11.9292 7.36509 15.0239 6.08325 18.2507 6.08325Z" fill="black"/>
</svg>
