<svg width="73" height="73" viewBox="0 0 73 73" fill="none" xmlns="http://www.w3.org/2000/svg">
<path fill-rule="evenodd" clip-rule="evenodd" d="M22.7054 3.2425C26.2733 3.07825 27.4108 3.04175 36.4993 3.04175C45.5878 3.04175 46.7254 3.08129 50.2903 3.2425C53.8551 3.40371 56.2884 3.9725 58.4176 4.79679C60.6471 5.63933 62.6698 6.95637 64.3428 8.65971C66.0461 10.3296 67.3601 12.3492 68.1996 14.5818C69.0269 16.711 69.5927 19.1443 69.7569 22.7031C69.9212 26.277 69.9577 27.4146 69.9577 36.5001C69.9577 45.5886 69.9181 46.7262 69.7569 50.294C69.5957 53.8528 69.0269 56.2861 68.1996 58.4153C67.3601 60.6482 66.0439 62.6712 64.3428 64.3435C62.6698 66.0468 60.6471 67.3608 58.4176 68.2003C56.2884 69.0277 53.8551 69.5934 50.2963 69.7577C46.7254 69.9219 45.5878 69.9584 36.4993 69.9584C27.4108 69.9584 26.2733 69.9189 22.7054 69.7577C19.1466 69.5965 16.7133 69.0277 14.5841 68.2003C12.3513 67.3607 10.3283 66.0446 8.65593 64.3435C6.95375 62.6726 5.63651 60.6506 4.79606 58.4183C3.97177 56.2892 3.40602 53.8558 3.24177 50.2971C3.07752 46.7231 3.04102 45.5855 3.04102 36.5001C3.04102 27.4116 3.08056 26.274 3.24177 22.7092C3.40297 19.1443 3.97177 16.711 4.79606 14.5818C5.63776 12.3495 6.956 10.3275 8.65897 8.65666C10.329 6.95486 12.35 5.63764 14.5811 4.79679C16.7103 3.9725 19.1436 3.40675 22.7023 3.2425H22.7054ZM50.0196 9.265C46.4912 9.10379 45.4327 9.07033 36.4993 9.07033C27.566 9.07033 26.5075 9.10379 22.9791 9.265C19.7154 9.41404 17.9452 9.9585 16.765 10.4178C15.2046 11.0261 14.0883 11.747 12.9173 12.918C11.8072 13.998 10.9529 15.3127 10.4171 16.7657C9.95777 17.9459 9.41331 19.7162 9.26427 22.9799C9.10306 26.5082 9.0696 27.5667 9.0696 36.5001C9.0696 45.4335 9.10306 46.492 9.26427 50.0203C9.41331 53.284 9.95777 55.0542 10.4171 56.2344C10.9524 57.6853 11.8071 59.0023 12.9173 60.0821C13.9971 61.1923 15.3141 62.047 16.765 62.5824C17.9452 63.0417 19.7154 63.5861 22.9791 63.7352C26.5075 63.8964 27.5629 63.9298 36.4993 63.9298C45.4358 63.9298 46.4912 63.8964 50.0196 63.7352C53.2833 63.5861 55.0535 63.0417 56.2337 62.5824C57.7941 61.974 58.9103 61.2532 60.0814 60.0821C61.1916 59.0023 62.0463 57.6853 62.5816 56.2344C63.0409 55.0542 63.5854 53.284 63.7344 50.0203C63.8956 46.492 63.9291 45.4335 63.9291 36.5001C63.9291 27.5667 63.8956 26.5082 63.7344 22.9799C63.5854 19.7162 63.0409 17.9459 62.5816 16.7657C61.9733 15.2054 61.2524 14.0891 60.0814 12.918C59.0014 11.808 57.6867 10.9538 56.2337 10.4178C55.0535 9.9585 53.2833 9.41404 50.0196 9.265ZM32.2258 46.8144C34.6125 47.8079 37.27 47.942 39.7446 47.1937C42.2191 46.4455 44.3572 44.8614 45.7935 42.7119C47.2298 40.5624 47.8753 37.981 47.6198 35.4084C47.3643 32.8359 46.2236 30.4319 44.3925 28.607C43.2252 27.4404 41.8138 26.5472 40.2599 25.9916C38.7059 25.436 37.0482 25.2318 35.4059 25.3938C33.7636 25.5558 32.1776 26.0799 30.7622 26.9284C29.3467 27.7768 28.137 28.9286 27.2201 30.3007C26.3033 31.6728 25.702 33.2312 25.4597 34.8635C25.2173 36.4959 25.3399 38.1617 25.8187 39.741C26.2974 41.3203 27.1203 42.7738 28.2282 43.9969C29.3361 45.22 30.7014 46.1823 32.2258 46.8144ZM24.3388 24.3395C25.9357 22.7425 27.8316 21.4758 29.9181 20.6115C32.0046 19.7472 34.2409 19.3024 36.4993 19.3024C38.7578 19.3024 40.9941 19.7472 43.0806 20.6115C45.1671 21.4758 47.063 22.7425 48.6599 24.3395C50.2569 25.9364 51.5237 27.8323 52.3879 29.9188C53.2522 32.0053 53.697 34.2416 53.697 36.5001C53.697 38.7585 53.2522 40.9948 52.3879 43.0813C51.5237 45.1679 50.2569 47.0637 48.6599 48.6607C45.4347 51.8858 41.0605 53.6977 36.4993 53.6977C31.9382 53.6977 27.564 51.8858 24.3388 48.6607C21.1136 45.4355 19.3017 41.0612 19.3017 36.5001C19.3017 31.939 21.1136 27.5647 24.3388 24.3395ZM57.5112 21.8636C57.9069 21.4903 58.2237 21.0414 58.4429 20.5434C58.662 20.0455 58.779 19.5086 58.7869 18.9647C58.7948 18.4207 58.6935 17.8807 58.489 17.3765C58.2845 16.8724 57.9809 16.4145 57.5962 16.0298C57.2115 15.6451 56.7536 15.3415 56.2495 15.137C55.7453 14.9325 55.2053 14.8312 54.6614 14.8391C54.1174 14.847 53.5805 14.964 53.0826 15.1832C52.5847 15.4023 52.1357 15.7191 51.7624 16.1148C51.0364 16.8845 50.6389 17.9067 50.6544 18.9647C50.6698 20.0226 51.0969 21.0328 51.845 21.781C52.5932 22.5291 53.6034 22.9562 54.6614 22.9717C55.7193 22.9871 56.7416 22.5896 57.5112 21.8636Z" fill="black"/>
</svg>
